<?xml version="1.0" standalone="no"?>
<!DOCTYPE svg PUBLIC "-//W3C//DTD SVG 20010904//EN"
 "http://www.w3.org/TR/2001/REC-SVG-20010904/DTD/svg10.dtd">
<svg version="1.0" xmlns="http://www.w3.org/2000/svg"
 width="2000.000000pt" height="2000.000000pt" viewBox="0 0 2000.000000 2000.000000"
 preserveAspectRatio="xMidYMid meet">

<g transform="translate(0.000000,2000.000000) scale(0.100000,-0.100000)"
fill="#000000" stroke="none">
<path d="M9690 19634 c-30 -2 -136 -8 -235 -14 -1016 -61 -2060 -293 -3025
-673 -1614 -635 -3014 -1655 -4079 -2972 -898 -1111 -1520 -2346 -1871 -3720
-152 -592 -243 -1188 -280 -1835 -14 -241 -14 -826 0 -1055 97 -1589 585
-3121 1421 -4460 86 -138 302 -456 364 -537 l20 -26 335 200 c688 412 1639
963 2425 1405 358 202 405 227 412 219 7 -7 22 -77 23 -103 0 -18 -29 -38
-162 -114 -707 -400 -1989 -1146 -2641 -1536 l-307 -184 22 -32 c39 -55 258
-328 347 -432 252 -296 654 -705 932 -948 953 -832 1949 -1421 3156 -1866 l83
-30 -101 122 c-190 228 -880 1006 -1015 1143 -111 112 -168 199 -201 301 -33
108 -40 202 -19 294 20 91 36 120 172 306 224 307 364 464 777 868 175 171
327 325 338 343 18 28 19 37 9 61 -16 39 -42 48 -365 126 -148 36 -271 68
-274 70 -2 3 16 26 41 53 59 63 94 119 134 213 52 122 84 268 91 404 9 212
-18 406 -136 945 -22 102 -50 243 -62 313 -19 109 -20 131 -8 142 12 12 374
205 384 205 2 0 7 -17 10 -38 17 -95 79 -331 119 -448 152 -443 355 -782 614
-1026 174 -163 329 -206 449 -125 69 46 97 107 96 205 0 90 -11 133 -105 427
-174 548 -274 980 -309 1345 l-12 125 -71 65 c-269 243 -575 667 -663 914 -7
22 -29 77 -47 121 -76 183 -107 326 -130 615 -55 666 -55 1009 -1 1690 13 168
27 352 31 410 l8 105 8 -95 c5 -54 3 -218 -3 -380 -13 -330 -6 -1282 10 -1465
19 -207 51 -457 71 -545 42 -195 138 -442 244 -629 108 -191 345 -491 526
-665 80 -77 105 -95 203 -141 145 -68 278 -118 414 -153 l108 -28 3 -99 c3
-125 -10 -347 -49 -815 -27 -322 -31 -425 -36 -880 -5 -503 6 -1105 27 -1435
25 -388 96 -1036 165 -1516 13 -91 40 -296 60 -455 73 -589 202 -1405 226
-1429 15 -14 547 -72 884 -97 221 -16 892 -16 1110 0 165 13 768 74 876 90
l54 7 7 285 c6 281 14 394 64 860 48 459 126 1020 190 1375 19 105 52 300 75
435 59 356 163 884 219 1120 27 113 70 304 95 425 57 270 125 564 216 923 38
150 69 283 69 296 0 13 35 144 79 292 101 346 187 704 262 1094 12 63 25 119
29 123 8 9 17 -27 85 -339 75 -342 93 -530 76 -749 -19 -226 -51 -353 -136
-531 -142 -297 -124 -266 -337 -581 -79 -116 -162 -276 -194 -373 -28 -82 -26
-202 4 -262 35 -71 78 -93 177 -92 202 2 461 141 653 350 97 105 165 203 271
388 106 187 164 316 232 514 94 277 114 445 114 964 0 212 3 381 6 375 32 -59
57 -360 60 -747 2 -212 7 -189 -101 -510 -107 -317 -140 -454 -147 -606 -12
-254 48 -388 183 -410 150 -23 372 167 607 519 174 262 346 686 453 1121 18
77 36 141 38 144 5 5 20 -5 189 -126 l118 -85 -6 -41 c-34 -211 -165 -573
-330 -906 -52 -106 -108 -227 -124 -269 -43 -111 -84 -321 -78 -398 17 -231
262 -349 522 -252 112 42 242 151 320 269 49 74 151 276 216 428 24 56 47 102
51 102 11 0 114 -216 137 -288 34 -105 45 -217 31 -300 -10 -59 -20 -83 -61
-142 -140 -198 -346 -273 -909 -330 -113 -11 -293 -31 -400 -45 -107 -13 -275
-31 -373 -40 -386 -34 -629 -101 -719 -198 -23 -24 -28 -38 -28 -78 0 -70 40
-110 182 -184 537 -277 694 -380 903 -596 270 -278 315 -362 315 -586 0 -122
-26 -183 -310 -723 -80 -153 -150 -307 -241 -534 -71 -176 -128 -321 -126
-323 11 -10 551 255 822 403 497 271 1085 667 1490 1004 460 383 986 910 1350
1355 176 215 505 661 505 684 0 5 -57 41 -127 79 -658 359 -1507 817 -2020
1088 -156 82 -283 153 -283 158 0 28 43 146 53 146 46 0 1900 -1004 2391
-1294 43 -26 80 -46 81 -44 13 14 150 234 227 363 831 1400 1270 2878 1348
4535 59 1264 -157 2619 -605 3790 -588 1536 -1617 2942 -2917 3983 -1185 948
-2551 1600 -4036 1926 -447 98 -811 151 -1354 197 -171 14 -1004 27 -1148 18z
m5413 -2254 c-1 -25 -5 -112 -9 -195 -7 -174 3 -226 61 -305 78 -107 202 -184
438 -275 134 -51 129 -65 -28 -84 -325 -41 -501 -145 -673 -395 -51 -74 -159
-278 -171 -325 -9 -34 -45 -40 -61 -10 -8 15 -10 51 -5 118 25 364 -126 615
-475 786 -147 72 -152 85 -32 85 189 0 327 31 481 107 162 80 279 208 383 421
45 91 65 122 77 120 12 -3 16 -14 14 -48z m-9708 -1897 c93 -87 246 -228 342
-313 175 -156 194 -180 159 -209 -18 -15 -58 4 -100 48 -17 17 -38 31 -48 31
-11 0 -17 4 -14 9 3 5 -29 42 -72 82 -249 235 -488 509 -444 509 5 0 85 -71
177 -157z m-2091 -352 c90 -55 223 -147 516 -357 107 -77 409 -286 670 -464
568 -387 800 -550 813 -571 5 -9 7 -28 3 -42 -12 -50 -54 -37 -184 56 -171
122 -314 222 -617 427 -538 365 -863 599 -1045 751 -122 102 -271 249 -251
249 7 0 50 -22 95 -49z m12588 -318 c-57 -80 -623 -632 -674 -659 -46 -24 -91
4 -70 42 11 19 338 322 475 440 104 89 261 204 280 204 4 0 -1 -12 -11 -27z
m902 -1066 c-8 -22 -152 -148 -262 -230 -293 -217 -1029 -647 -1113 -649 -52
-2 -78 52 -41 85 10 10 84 50 164 91 182 93 454 248 663 379 88 55 213 133
277 173 111 70 309 176 315 170 2 -2 1 -10 -3 -19z m-13509 -512 c242 -81
1741 -755 1783 -801 24 -27 18 -56 -14 -68 -19 -7 -17 -8 -609 256 -253 113
-575 256 -715 318 -376 166 -575 271 -621 327 -13 15 -10 16 31 9 25 -4 90
-22 145 -41z m14535 -645 c0 -15 -98 -75 -203 -125 -51 -24 -346 -159 -657
-301 -1466 -666 -1434 -653 -1459 -606 -16 30 18 66 108 111 79 40 931 433
1290 596 392 177 634 275 748 304 123 31 173 37 173 21z m-15443 -739 c108
-21 170 -38 478 -134 116 -36 566 -170 1000 -297 435 -128 802 -238 816 -245
41 -21 52 -40 39 -64 -13 -25 -45 -27 -115 -5 -27 8 -291 84 -585 169 -607
174 -979 288 -1323 405 -240 81 -427 160 -427 179 0 14 3 14 117 -8z m16023
-520 c0 -13 -95 -47 -209 -76 -136 -34 -1251 -256 -1861 -371 -549 -103 -675
-119 -700 -89 -21 25 -3 46 60 67 118 40 2173 431 2475 471 63 8 235 7 235 -2z
m-8234 -786 c16 -42 -104 -137 -291 -230 -274 -137 -655 -217 -1035 -218 -223
0 -310 12 -498 75 -155 51 -262 106 -296 151 -16 22 -17 28 -4 53 l14 29 89
-5 c233 -13 691 -4 925 18 405 38 752 85 940 126 90 19 149 20 156 1z m-7906
-360 c673 -60 1191 -97 1860 -131 179 -9 335 -20 348 -25 15 -6 22 -16 20 -27
-3 -16 -22 -17 -228 -16 -541 4 -1810 91 -2243 154 -167 25 -298 54 -335 76
-25 14 -19 15 83 9 61 -3 283 -21 495 -40z m15060 -444 c137 -18 307 -52 327
-66 30 -22 -148 -28 -428 -15 -278 14 -572 9 -1023 -16 -201 -11 -286 -13
-303 -5 -29 14 -31 56 -3 71 75 40 1170 64 1430 31z m-12882 -613 c4 -35 -19
-42 -233 -67 -613 -73 -1471 -130 -2495 -167 -195 -7 -375 2 -348 17 54 30
288 53 888 84 544 28 971 56 1320 85 271 23 713 70 720 76 2 3 36 3 75 2 67
-3 70 -4 73 -30z m12078 -238 c274 -40 469 -64 814 -100 162 -16 324 -35 360
-40 93 -15 240 -52 240 -60 0 -25 -269 -27 -545 -5 -396 32 -886 90 -1042 125
-76 17 -104 57 -67 94 20 20 8 21 240 -14z m-13768 -838 c78 -131 162 -260
186 -288 53 -60 136 -107 243 -135 112 -30 383 -37 547 -14 97 13 121 14 127
3 5 -7 9 -16 9 -20 0 -3 -69 -71 -152 -150 -226 -212 -270 -258 -333 -353
-128 -192 -161 -424 -114 -810 11 -93 17 -180 15 -191 -6 -23 -31 -38 -47 -29
-4 3 -47 82 -95 176 -136 267 -201 358 -321 447 -193 143 -399 208 -715 227
-92 6 -118 11 -123 23 -8 22 1 28 108 76 120 55 215 118 311 207 91 85 121
142 167 315 28 103 32 140 37 281 2 89 -1 227 -7 308 -11 139 -10 165 8 165 4
0 71 -107 149 -238z m2508 -2233 c31 -169 49 -327 69 -599 18 -248 35 -351 75
-461 16 -44 25 -79 20 -79 -17 0 -187 63 -235 88 -125 62 -252 175 -299 265
-74 142 -52 335 65 569 56 112 255 373 272 358 5 -4 19 -67 33 -141z"/>
</g>
</svg>
